<?xml version="1.0" encoding="UTF-8"?>
<svg xmlns:xodm="http://www.corel.com/coreldraw/odm/2003" xmlns="http://www.w3.org/2000/svg" xmlns:xlink="http://www.w3.org/1999/xlink" version="1.1" id="Layer_1" x="0px" y="0px" viewBox="0 0 2500 2500" style="enable-background:new 0 0 2500 2500;" xml:space="preserve">
<style type="text/css">
	.st0{fill:none;}
</style>
<g id="Layer_x0020_1">
	<g id="_1626923953840">
		<rect y="0" class="st0" width="2500" height="2500"></rect>
		<path d="M2480,1250v-2.2v-2.2C2477.8,559.8,1924.6,0,1249.6,0C571.3,0,19.1,559.8,19.1,1250c0,688,552.2,1250,1230.4,1250    c313.1,0,607.6-118.5,835.9-334.8c45.6-43.5,48.9-114.1,4.4-159.8c-41.3-45.7-112-48.9-157.6-7.6c0,0,0,0-2.2,2.2    c-183.7,173.9-431.5,273.9-685.9,273.9c-297.8,0-564.1-130.4-748.9-339.1l526.1-842.4v390.2c0,187,72.8,246.7,133.7,264.1    c60.9,17.4,152.2,4.3,252.2-152.2l288-467.4c9.8-14.1,17.4-29.3,27.2-39.1l0,237c0,173.9,70.7,315.2,191.3,382.6    c108.7,63.1,246.7,55.4,360.9-14.1C2414.8,1601.1,2489.8,1441.3,2480,1250L2480,1250z M2160.4,1494.6    c-43.5,27.2-94.6,31.5-133.7,9.8c-48.9-29.3-77.2-94.6-77.2-183.7v-273.9c0-130.4-51.1-225-138-250    c-147.8-43.5-259.8,138-301.1,206.5l-260.9,418.5V905.4c-3.3-118.5-41.3-188-114.1-209.8c-48.9-14.1-120.7-7.6-191.3,98.9    l-583.7,934.8C282.2,1581.5,242,1417.4,242,1250c0-564.1,453.3-1022.8,1007.6-1022.8c554.4,0,1007.6,458.7,1007.6,1022.8v2.2v2.2    C2261.5,1364.1,2227.8,1451.1,2160.4,1494.6L2160.4,1494.6z"></path>
	</g>
</g>
</svg>
